<mxfile host="app.diagrams.net" modified="2024-05-07T06:47:57.426Z" agent="Mozilla/5.0 (Windows NT 10.0; Win64; x64) AppleWebKit/537.36 (KHTML, like Gecko) Chrome/124.0.0.0 Safari/537.36" version="24.3.1" etag="CaBEK2CD2ZD_4N9TJnC-" type="github">
  <diagram name="第 1 页" id="mFrgDrmNJmS8-qKtEauJ">
    <mxGraphModel>
      <root>
        <mxCell id="0" />
        <mxCell id="1" parent="0" />
      </root>
    </mxGraphModel>
  </diagram>
</mxfile>
